<?xml version="1.0" encoding="UTF-8"?>
<svg id="Layer_2" data-name="Layer 2" xmlns="http://www.w3.org/2000/svg" xmlns:xlink="http://www.w3.org/1999/xlink" viewBox="0 0 283.5327 283.5332">
  <defs>
    <style>
      .cls-1 {
        fill: #fff;
      }

      .cls-2 {
        fill: #353535;
      }

      .cls-3 {
        fill: url(#linear-gradient);
      }
    </style>
    <linearGradient id="linear-gradient" x1="0" y1="141.7666" x2="283.5327" y2="141.7666" gradientUnits="userSpaceOnUse">
      <stop offset=".2075" stop-color="#6d26fe"/>
      <stop offset=".8959" stop-color="#02def7"/>
    </linearGradient>
  </defs>
  <g id="Layer_1-2" data-name="Layer 1">
    <g>
      <g>
        <path class="cls-1" d="M113.7109,116.9492h-40.5718v-14.9521h61.9077v14.9521c-21.252,13.3555-29.2319,27.0479-29.2319,45.3594h-19.7397c0-16.2959,5.8799-33.0117,27.6357-45.3594Z"/>
        <path class="cls-1" d="M210.6465,131.1445c0,20.1602-15.4561,32.8438-39.8999,32.8438-7.2236,0-16.2119-.6719-23.3516-1.8477v-14.2803c7.1396,1.0928,15.2036,1.6807,21.5039,1.6807,10.1636,0,16.9678-3.7803,19.6558-10.5-6.6362,3.1914-12.5161,4.1992-19.3198,4.1992-16.5479,0-26.8799-7.8115-26.8799-20.1592,0-13.7764,12.8521-22.5117,33.0117-22.5117,21.6719,0,35.2798,11.7598,35.2798,30.5752ZM176.5425,131.8164c8.064,0,13.272-3.3594,13.272-8.3994,0-5.124-5.208-8.4844-13.1035-8.4844-8.3164,0-13.6084,3.3604-13.6084,8.6523,0,5.04,5.208,8.2314,13.4399,8.2314Z"/>
      </g>
      <path class="cls-1" d="M123.8916,178.2822c8.8735,0,12.7119,5.7324,12.7119,11.0664,0,5.3838-3.8384,11.1172-12.7119,11.1172-8.8232,0-12.7119-5.7334-12.7119-11.1172,0-5.334,3.8887-11.0664,12.7119-11.0664ZM123.8916,196.2783c4.5366,0,7.5776-2.7422,7.5776-6.9795,0-4.1875-3.041-6.8789-7.5776-6.8789-4.4863,0-7.5273,2.6914-7.5273,6.8789,0,4.2373,3.041,6.9795,7.5273,6.9795ZM152.0571,179.1299h5.7329l-26.3208,35.4434h-5.7329l26.3208-35.4434ZM159.6348,193.3867c8.8232,0,12.6616,5.7324,12.6616,11.1172,0,5.334-3.8384,11.0664-12.6616,11.0664-8.8735,0-12.7119-5.7324-12.7119-11.0664,0-5.3848,3.8384-11.1172,12.7119-11.1172ZM159.6348,211.4326c4.4863,0,7.5273-2.7422,7.5273-6.9287,0-4.2373-3.041-6.9297-7.5273-6.9297-4.5366,0-7.5776,2.6924-7.5776,6.9297,0,4.1865,3.041,6.9287,7.5776,6.9287Z"/>
      <path class="cls-2" d="M141.7661,283.5332C63.5962,283.5332,0,219.9365,0,141.7666S63.5962,0,141.7661,0s141.7666,63.5967,141.7666,141.7666-63.5962,141.7666-141.7666,141.7666ZM141.7661,32c-60.5254,0-109.7661,49.2412-109.7661,109.7666s49.2407,109.7666,109.7661,109.7666,109.7666-49.2412,109.7666-109.7666-49.2412-109.7666-109.7666-109.7666Z"/>
      <path class="cls-3" d="M141.7661,283.5332C63.5962,283.5332,0,219.9365,0,141.7666c0-9.6592.979-19.3154,2.9102-28.7012,1.7812-8.6553,10.2397-14.2285,18.8965-12.4473,8.6553,1.7812,14.228,10.2412,12.4473,18.8965-1.4956,7.2686-2.2539,14.7549-2.2539,22.252,0,60.5254,49.2407,109.7666,109.7661,109.7666s109.7666-49.2412,109.7666-109.7666-49.2412-109.7666-109.7666-109.7666c-8.8364,0-16-7.1631-16-16S132.9297,0,141.7661,0c78.1704,0,141.7666,63.5967,141.7666,141.7666s-63.5962,141.7666-141.7666,141.7666Z"/>
    </g>
  </g>
</svg>