<svg width="186" height="50" viewBox="0 0 186 50" fill="none" xmlns="http://www.w3.org/2000/svg">
<g clip-path="url(#clip0_251_106)">
<path d="M-0.000120655 4.3182C4.61586 4.34429 7.542 1.73503 11.2655 2.55042C12.1946 2.41996 13.1236 2.30254 14.06 2.19165C16.8618 1.86549 19.7074 1.65023 22.6116 1.59804C23.27 1.54586 23.9284 1.48715 24.5868 1.44148C25.9035 1.34364 27.2276 1.25231 28.5517 1.15447C29.5831 0.900063 30.6439 0.697845 31.7339 0.541289C32.8238 0.384733 33.9358 0.267316 35.0696 0.189039C45.5745 0.430395 54.3529 0.430395 64.4042 0.919632C65.4137 0.854401 66.4305 0.7696 67.4547 0.665229C68.4788 0.560859 69.4957 0.436919 70.5271 0.299932C82.1512 0.430395 95.3188 -0.874236 107.199 1.08271C108.501 1.09576 109.811 1.1088 111.113 1.12185C121.559 1.2197 132.035 1.27841 141.991 2.41344C143.3 2.49171 144.602 2.56999 145.904 2.64827C147.207 2.72655 148.501 2.80482 149.789 2.87658C151.464 2.98747 153.132 3.08532 154.807 3.15708C155.649 3.19621 156.482 3.22231 157.324 3.2484C158.165 3.27449 158.999 3.29406 159.84 3.30711C161.135 3.03314 164.061 3.03314 165.414 3.26797C166.344 3.28102 167.273 3.30711 168.194 3.35277C174.654 3.6724 180.894 4.99661 186.007 9.56282C183.264 9.80417 180.521 10.0521 177.777 10.2934C176.863 10.3717 175.949 10.45 175.034 10.5282C166.987 9.56282 156.746 12.1721 148.289 11.8655C147.324 11.8133 146.358 11.7807 145.392 11.7546C144.427 11.7285 143.461 11.7155 142.496 11.7089C140.564 11.6959 138.64 11.722 136.716 11.7742C134.771 11.6828 132.839 11.6307 130.93 11.6046C130.155 11.6502 129.372 11.6959 128.589 11.735C127.806 11.7742 127.009 11.8133 126.219 11.8459C117.25 12.1786 107.009 12.1786 98.2889 12.8961C97.3086 12.9092 96.3284 12.9157 95.3554 12.9288C89.4885 13.0005 83.6655 13.1701 77.8717 14.1682C76.9281 14.3312 75.9771 14.5139 75.0188 14.7292C73.3362 14.9705 71.661 15.238 69.9785 15.4989C67.6961 15.7011 65.3625 15.8316 62.9923 16.0142C61.8072 16.1055 60.6148 16.2099 59.4151 16.3469C55.816 18.7083 51.4268 16.099 48.5006 18.7083C51.4268 17.4037 54.3529 21.3175 58.0398 19.8107C59.1445 19.8564 60.2564 19.8694 61.3537 19.8759C63.5556 19.8759 65.7136 19.8107 67.74 19.7063C69.2543 19.7324 70.7685 19.752 72.2755 19.7976C73.029 19.8172 73.7898 19.8368 74.5433 19.8694C75.2967 19.902 76.0575 19.9346 76.811 19.9738C83.329 20.7566 90.5273 21.0827 97.6451 21.6176C98.662 21.6959 99.6788 21.7742 100.688 21.859C103.607 22.6352 106.46 22.7526 109.306 22.7722C110.257 22.7722 111.208 22.7722 112.151 22.7787C118.706 21.3175 123.095 25.2314 128.947 25.2314C123.095 27.8407 118.706 26.5361 112.232 26.5817C111.391 26.5817 110.564 26.5948 109.745 26.6078C108.099 26.6339 106.453 26.6861 104.712 26.7579C103.783 26.7905 102.861 26.8361 101.939 26.9079C96.4162 27.3188 91.054 28.493 86.8696 31.4284C86.2698 31.8655 85.6992 32.3221 85.1505 32.8113C84.6019 33.3006 84.0898 33.8159 83.5997 34.3573C79.2105 38.2712 83.5997 44.7944 87.9889 50.0129C82.1366 44.7944 77.7474 36.9666 83.5997 31.7546C84.8213 31.1023 86.0357 30.4891 87.2573 29.9151C92.0855 27.1036 97.1769 26.4513 102.385 26.3208C103.256 26.3012 104.127 26.2947 105.004 26.2882C105.824 26.3273 106.672 26.3599 107.535 26.3926C108.399 26.4187 109.277 26.4447 110.154 26.4578C115.78 26.5361 120.959 25.5706 126.811 25.5706C120.959 25.5706 117.243 25.2314 111.464 24.553C110.637 24.4421 109.818 24.3312 108.999 24.2204C106.533 23.8877 104.061 23.568 101.413 23.3528C100.505 23.2419 99.5983 23.1245 98.6912 23.0005C92.3488 22.159 85.9991 21.2067 79.1227 21.0631C78.1571 20.9979 77.1841 20.9522 76.2038 20.9131C74.7408 20.8609 73.2704 20.8414 71.7854 20.8609C70.3004 20.874 68.808 20.9262 67.3084 21.0044C64.6383 21.1218 61.5293 21.3763 58.3764 21.3763C57.3229 21.3763 56.2695 21.3436 55.2307 21.2654C51.4121 21.3175 47.0229 18.7083 44.0968 16.099C49.9491 18.7083 54.3383 16.099 60.3954 14.827C61.4634 14.4943 62.5168 14.1682 63.5702 13.8616C65.6697 13.2549 67.7473 12.7396 69.7737 12.4917C71.683 12.296 73.585 12.1199 75.4723 11.9633C76.416 11.8851 77.3597 11.8133 78.3034 11.7481C84.7994 9.71937 91.4929 9.32146 98.1426 9.55629C99.0936 9.58891 100.045 9.63457 100.988 9.69328C108.465 9.58239 117.236 12.1916 124.485 10.8218C125.217 10.8218 125.941 10.8218 126.665 10.8218C128.838 10.8218 131.01 10.8022 133.176 10.7826C135.078 10.613 136.958 10.3652 138.823 10.0194C140.447 9.93464 142.071 9.83679 143.695 9.73242C144.507 9.68023 145.327 9.62805 146.146 9.56934C146.965 9.51063 147.785 9.45192 148.604 9.38669C156.731 9.58239 165.51 6.97312 174.8 9.11272C175.466 9.11272 176.139 9.09967 176.834 9.06053C178.224 8.98225 179.694 8.81265 181.333 8.4865L181.911 8.26471C179.167 7.77547 177.082 7.37756 174.983 7.0514C174.288 6.94051 173.586 6.84266 172.862 6.74481C166.965 5.66197 159.65 5.66197 153.651 5.63588C153.066 5.61631 152.481 5.59021 151.896 5.56412C150.147 5.48584 148.406 5.39452 146.673 5.31624C145.392 5.16621 144.12 5.03574 142.854 4.92485C141.588 4.81396 140.33 4.72263 139.072 4.64435C132.291 5.12055 125.173 4.80743 117.974 4.29863C116.943 4.22687 115.919 4.14859 114.887 4.07032C113.856 3.99204 112.824 3.90724 111.793 3.82896C110.762 3.75068 109.73 3.66588 108.699 3.58108C107.411 3.47671 106.124 3.37886 104.843 3.29406C99.6788 3.0527 93.8265 3.0527 87.8645 3.02009C86.7087 3.00052 85.5455 2.98095 84.3751 2.95486C79.7079 2.86353 74.9822 2.73959 70.2126 2.53085C69.0348 2.56347 67.857 2.59608 66.6646 2.62218C65.4722 2.64827 64.2798 2.68088 63.0801 2.70698C61.8804 2.73307 60.6734 2.75916 59.4663 2.78526C52.8606 3.0527 47.0083 3.0527 39.9124 2.74612C38.8078 2.80482 37.6959 2.87006 36.5693 2.92876C33.1969 3.12446 29.7221 3.32015 26.0791 3.43757C25.4573 3.45714 24.8355 3.47671 24.2064 3.48976C23.5772 3.5028 22.9628 3.5289 22.3336 3.54846C19.5172 4.33777 16.7228 4.46823 13.9649 4.43561C13.0431 4.42257 12.1214 4.39647 11.1997 4.36386C7.50543 4.35734 3.11622 3.0527 0.01451 5.08141L-0.0366974 4.32472L-0.000120655 4.3182Z" fill="url(#paint0_linear_251_106)"/>
</g>
<defs>
<linearGradient id="paint0_linear_251_106" x1="-0.000120656" y1="25.0031" x2="186" y2="25.0031" gradientUnits="userSpaceOnUse">
<stop offset="0.160416" stop-color="#6D25FF"/>
<stop offset="1" stop-color="#02DEF7"/>
</linearGradient>
<clipPath id="clip0_251_106">
<rect width="186" height="50" fill="white"/>
</clipPath>
</defs>
</svg>
