<?xml version="1.0" encoding="UTF-8"?>
<svg id="Layer_2" data-name="Layer 2" xmlns="http://www.w3.org/2000/svg" xmlns:xlink="http://www.w3.org/1999/xlink" viewBox="0 0 283.5322 283.5332">
  <defs>
    <style>
      .cls-1 {
        fill: #fff;
      }

      .cls-2 {
        fill: #353535;
      }

      .cls-3 {
        fill: url(#linear-gradient);
      }
    </style>
    <linearGradient id="linear-gradient" x1="0" y1="141.7666" x2="283.5322" y2="141.7666" gradientUnits="userSpaceOnUse">
      <stop offset=".0358" stop-color="#ff4343"/>
      <stop offset=".8035" stop-color="#fe8a17"/>
    </linearGradient>
  </defs>
  <g id="Layer_1-2" data-name="Layer 1">
    <g>
      <path class="cls-1" d="M123.8916,174.1934c8.873,0,12.7119,5.7324,12.7119,11.0664,0,5.3848-3.8389,11.1172-12.7119,11.1172-8.8232,0-12.7119-5.7324-12.7119-11.1172,0-5.334,3.8887-11.0664,12.7119-11.0664ZM123.8916,192.1895c4.5361,0,7.5771-2.7422,7.5771-6.9785,0-4.1875-3.041-6.8789-7.5771-6.8789-4.4863,0-7.5273,2.6914-7.5273,6.8789,0,4.2363,3.041,6.9785,7.5273,6.9785ZM152.0566,175.041h5.7334l-26.3213,35.4434h-5.7324l26.3203-35.4434ZM159.6348,189.2988c8.8232,0,12.6611,5.7324,12.6611,11.1172,0,5.334-3.8379,11.0664-12.6611,11.0664-8.874,0-12.7119-5.7324-12.7119-11.0664,0-5.3848,3.8379-11.1172,12.7119-11.1172ZM159.6348,207.3438c4.4863,0,7.5273-2.7422,7.5273-6.9277,0-4.2383-3.041-6.9297-7.5273-6.9297-4.5371,0-7.5781,2.6914-7.5781,6.9297,0,4.1855,3.041,6.9277,7.5781,6.9277Z"/>
      <g>
        <path class="cls-1" d="M136.3906,131.1445c0,20.1602-15.4561,32.8438-39.8994,32.8438-7.2236,0-16.2119-.6719-23.3516-1.8477v-14.2803c7.1396,1.0928,15.2031,1.6807,21.5039,1.6807,10.1631,0,16.9678-3.7803,19.6553-10.5-6.6357,3.1914-12.5156,4.1992-19.3193,4.1992-16.5479,0-26.8799-7.8115-26.8799-20.1592,0-13.7764,12.8516-22.5117,33.0117-22.5117,21.6719,0,35.2793,11.7598,35.2793,30.5752ZM102.2871,131.8164c8.0635,0,13.2715-3.3594,13.2715-8.3994,0-5.124-5.208-8.4844-13.1035-8.4844-8.3164,0-13.6084,3.3604-13.6084,8.6523,0,5.04,5.208,8.2314,13.4404,8.2314Z"/>
        <path class="cls-1" d="M185.1943,152.7324h-41.4111v-14.1953l41.4111-36.54h19.7402v36.54h10.248v14.1953h-10.248v9.5762h-19.7402v-9.5762ZM185.1943,138.5371v-19.4883l-21.252,19.4883h21.252Z"/>
      </g>
      <path class="cls-2" d="M141.7666,283.5332C63.5967,283.5332,0,219.9365,0,141.7666S63.5967,0,141.7666,0s141.7656,63.5967,141.7656,141.7666-63.5957,141.7666-141.7656,141.7666ZM141.7666,32c-60.5254,0-109.7666,49.2412-109.7666,109.7666s49.2412,109.7666,109.7666,109.7666,109.7656-49.2412,109.7656-109.7666-49.2402-109.7666-109.7656-109.7666Z"/>
      <path class="cls-3" d="M141.7666,283.5332C63.5967,283.5332,0,219.9365,0,141.7666c0-26.7637,7.5-52.834,21.6895-75.3916,13.793-21.9277,33.2959-39.668,56.4004-51.3008,7.8936-3.9727,17.5117-.7969,21.4863,7.0957,3.9736,7.8926.7969,17.5127-7.0957,21.4863-37.3057,18.7832-60.4805,56.377-60.4805,98.1104,0,60.5254,49.2412,109.7666,109.7666,109.7666s109.7656-49.2412,109.7656-109.7666-49.2402-109.7666-109.7656-109.7666c-8.8369,0-16-7.1631-16-16S132.9297,0,141.7666,0c78.1699,0,141.7656,63.5967,141.7656,141.7666s-63.5957,141.7666-141.7656,141.7666Z"/>
    </g>
  </g>
</svg>