<?xml version="1.0" encoding="UTF-8"?>
<svg id="Layer_2" data-name="Layer 2" xmlns="http://www.w3.org/2000/svg" xmlns:xlink="http://www.w3.org/1999/xlink" viewBox="0 0 594.95 86.23">
  <defs>
    <style>
      .cls-1 {
        letter-spacing: .02em;
      }

      .cls-2 {
        letter-spacing: -.1em;
      }

      .cls-3 {
        letter-spacing: -.03em;
      }

      .cls-4 {
        letter-spacing: -.05em;
      }

      .cls-5 {
        letter-spacing: 0em;
      }

      .cls-6 {
        letter-spacing: -.02em;
      }

      .cls-7 {
        letter-spacing: .02em;
      }

      .cls-8 {
        letter-spacing: 0em;
      }

      .cls-9 {
        font-family: PPMonumentExtended-Black, 'PP Monument Extended';
        font-size: 30.03px;
        font-weight: 800;
      }

      .cls-10 {
        letter-spacing: 0em;
      }

      .cls-11 {
        letter-spacing: 0em;
      }

      .cls-12 {
        letter-spacing: 0em;
      }

      .cls-13 {
        letter-spacing: 0em;
      }

      .cls-14 {
        letter-spacing: -.04em;
      }

      .cls-15 {
        letter-spacing: 0em;
      }

      .cls-16 {
        letter-spacing: 0em;
      }

      .cls-17 {
        fill: url(#linear-gradient);
      }

      .cls-18 {
        letter-spacing: -.02em;
      }
    </style>
    <linearGradient id="linear-gradient" x1="644.67" y1="42.66" x2="4.23" y2="38.61" gradientUnits="userSpaceOnUse">
      <stop offset=".07" stop-color="#fe8a17"/>
      <stop offset=".67" stop-color="#ff4343"/>
    </linearGradient>
  </defs>
  <g id="Layer_1-2" data-name="Layer 1">
    <g>
      <text class="cls-9" transform="translate(0 29.49)"><tspan class="cls-2" x="0" y="0">L</tspan><tspan class="cls-5" x="21.47" y="0">&apos;</tspan><tspan class="cls-6" x="32.89" y="0">É</tspan><tspan class="cls-10" x="57.94" y="0">C</tspan><tspan class="cls-7" x="89.11" y="0">H</tspan><tspan class="cls-6" x="120.26" y="0">E</tspan><tspan class="cls-12" x="145.31" y="0">C </tspan><tspan class="cls-18" x="188.47" y="0">E</tspan><tspan class="cls-4" x="213.51" y="0">S</tspan><tspan x="241.57" y="0">T </tspan><tspan class="cls-2" x="281.87" y="0">L</tspan><tspan class="cls-5" x="303.35" y="0">&apos;</tspan><tspan class="cls-6" x="314.76" y="0">E</tspan><tspan class="cls-3" x="339.81" y="0">S</tspan><tspan class="cls-8" x="368.52" y="0">S</tspan><tspan class="cls-16" x="397.81" y="0">E</tspan><tspan class="cls-8" x="423.13" y="0">NC</tspan><tspan class="cls-11" x="486.11" y="0">E </tspan><tspan class="cls-14" x="523.44" y="0">Q</tspan><tspan class="cls-16" x="554.89" y="0">U</tspan><tspan x="584.35" y="0">I</tspan><tspan class="cls-3" x="0" y="48">A</tspan><tspan class="cls-13" x="33.19" y="48">L</tspan><tspan class="cls-1" x="57.52" y="48">IM</tspan><tspan class="cls-16" x="107.58" y="48">E</tspan><tspan class="cls-8" x="132.9" y="48">N</tspan><tspan class="cls-16" x="164.71" y="48">T</tspan><tspan x="193" y="48">E </tspan><tspan class="cls-13" x="230.33" y="48">L</tspan><tspan x="254.66" y="48">E </tspan><tspan class="cls-18" x="292" y="48">S</tspan><tspan class="cls-15" x="320.98" y="48">U</tspan><tspan class="cls-10" x="350.5" y="48">CC</tspan><tspan class="cls-6" x="412.85" y="48">È</tspan><tspan class="cls-15" x="437.9" y="48">S</tspan><tspan x="467.22" y="48">.</tspan></text>
      <g>
        <path class="cls-17" d="M1.77,7.93h7.06v15.62h14.38v5.95H1.77V7.93Z"/>
        <path class="cls-17" d="M23.25,6.04h7.84l-.6,11.5h-6.61l-.63-11.5Z"/>
        <path class="cls-17" d="M34.66,7.93h22.04v5.31h-14.98v3.03h14.38v4.83h-14.38v3.06h14.98v5.31h-22.04V7.93ZM40.72,2.41L52.35,0v3.51l-11.62,2.4v-3.51Z"/>
        <path class="cls-17" d="M59.41,18.71c0-6.85,5.68-11.29,14.32-11.29,7.99,0,13.6,3.69,14.17,9.22h-7.51c-.36-1.86-2.94-3.3-6.67-3.3-4.23,0-6.97,2.16-6.97,5.38s2.73,5.44,6.97,5.44c3.72,0,6.31-1.44,6.67-3.33h7.51c-.57,5.58-6.19,9.28-14.17,9.28-8.65,0-14.32-4.47-14.32-11.38Z"/>
        <path class="cls-17" d="M90.88,7.93h7.06v7.81h12.91v-7.81h7.06v21.56h-7.06v-7.84h-12.91v7.84h-7.06V7.93Z"/>
        <path class="cls-17" d="M122.03,7.93h22.04v5.31h-14.98v3.03h14.38v4.83h-14.38v3.06h14.98v5.31h-22.04V7.93Z"/>
        <path class="cls-17" d="M146.78,18.71c0-6.85,5.68-11.29,14.32-11.29,7.99,0,13.6,3.69,14.17,9.22h-7.51c-.36-1.86-2.94-3.3-6.67-3.3-4.23,0-6.97,2.16-6.97,5.38s2.73,5.44,6.97,5.44c3.72,0,6.31-1.44,6.67-3.33h7.51c-.57,5.58-6.19,9.28-14.17,9.28-8.65,0-14.32-4.47-14.32-11.38Z"/>
        <path class="cls-17" d="M190.24,7.93h22.04v5.31h-14.98v3.03h14.38v4.83h-14.38v3.06h14.98v5.31h-22.04V7.93Z"/>
        <path class="cls-17" d="M214.99,22.38h7.33c0,1.56,1.62,2.61,6.31,2.61s5.68-.66,5.68-1.8c0-1.32-.81-1.59-6.04-1.92l-1.05-.06c-8.26-.48-11.89-2.52-11.89-7.15s4.71-6.64,12.13-6.64c8.47,0,13,2.58,13.27,7.36h-7.33c0-1.65-1.95-2.25-6.01-2.25-3.81,0-4.75.6-4.75,1.53,0,1.11.81,1.53,5.65,1.86l1.23.09c7.36.57,12.1,1.35,12.1,6.91s-4.74,7.18-12.7,7.18c-8.68,0-13.66-2.07-13.93-7.72Z"/>
        <path class="cls-17" d="M243.04,7.93h25.64v5.95h-9.28v15.62h-7.06v-15.62h-9.31v-5.95Z"/>
        <path class="cls-17" d="M283.65,7.93h7.06v15.62h14.38v5.95h-21.44V7.93Z"/>
        <path class="cls-17" d="M305.12,6.04h7.84l-.6,11.5h-6.61l-.63-11.5Z"/>
        <path class="cls-17" d="M316.53,7.93h22.04v5.31h-14.98v3.03h14.38v4.83h-14.38v3.06h14.98v5.31h-22.04V7.93Z"/>
        <path class="cls-17" d="M341.28,22.38h7.33c0,1.56,1.62,2.61,6.31,2.61s5.68-.66,5.68-1.8c0-1.32-.81-1.59-6.04-1.92l-1.05-.06c-8.26-.48-11.89-2.52-11.89-7.15s4.71-6.64,12.13-6.64c8.47,0,13,2.58,13.27,7.36h-7.33c0-1.65-1.95-2.25-6.01-2.25-3.81,0-4.75.6-4.75,1.53,0,1.11.81,1.53,5.65,1.86l1.23.09c7.36.57,12.1,1.35,12.1,6.91s-4.74,7.18-12.7,7.18c-8.68,0-13.66-2.07-13.93-7.72Z"/>
        <path class="cls-17" d="M369.99,22.38h7.33c0,1.56,1.62,2.61,6.31,2.61s5.68-.66,5.68-1.8c0-1.32-.81-1.59-6.04-1.92l-1.05-.06c-8.26-.48-11.89-2.52-11.89-7.15s4.71-6.64,12.13-6.64c8.47,0,13,2.58,13.27,7.36h-7.33c0-1.65-1.95-2.25-6.01-2.25-3.81,0-4.75.6-4.75,1.53,0,1.11.81,1.53,5.65,1.86l1.23.09c7.36.57,12.1,1.35,12.1,6.91s-4.74,7.18-12.7,7.18c-8.68,0-13.66-2.07-13.93-7.72Z"/>
        <path class="cls-17" d="M399.58,7.93h22.04v5.31h-14.98v3.03h14.38v4.83h-14.38v3.06h14.98v5.31h-22.04V7.93Z"/>
        <path class="cls-17" d="M424.9,7.93h10.45l11.02,14.77V7.93h7.06v21.56h-10.45l-11.02-14.8v14.8h-7.06V7.93Z"/>
        <path class="cls-17" d="M456.4,18.71c0-6.85,5.68-11.29,14.32-11.29,7.99,0,13.6,3.69,14.17,9.22h-7.51c-.36-1.86-2.94-3.3-6.67-3.3-4.23,0-6.97,2.16-6.97,5.38s2.73,5.44,6.97,5.44c3.72,0,6.31-1.44,6.67-3.33h7.51c-.57,5.58-6.19,9.28-14.17,9.28-8.65,0-14.32-4.47-14.32-11.38Z"/>
        <path class="cls-17" d="M487.88,7.93h22.04v5.31h-14.98v3.03h14.38v4.83h-14.38v3.06h14.98v5.31h-22.04V7.93Z"/>
        <path class="cls-17" d="M547.67,28.83c-2.16.81-4.74,1.26-7.66,1.26-9.16,0-15.1-4.47-15.1-11.38s5.95-11.29,15.1-11.29,15.13,4.45,15.13,11.29c0,3.03-1.14,5.59-3.18,7.51l1.92,1.68-3.42,3.39-2.79-2.46ZM540.02,24.15c.78,0,1.5-.06,2.19-.18l-3.21-2.82,3.39-3.39,4.42,3.9c.66-.84,1.02-1.83,1.02-2.94,0-3.24-3.03-5.38-7.81-5.38s-7.75,2.13-7.75,5.38,3.03,5.44,7.75,5.44Z"/>
        <path class="cls-17" d="M556.66,18.95V7.93h7.06v10.78c0,2.7,1.2,5.44,6.07,5.44s6.04-2.76,6.04-5.44V7.93h7.09v11.02c0,7.24-3.9,11.14-13.12,11.14s-13.12-3.9-13.12-11.14Z"/>
        <path class="cls-17" d="M586.12,7.93h7.06v21.56h-7.06V7.93Z"/>
        <path class="cls-17" d="M12.52,55.93h9.01l11.02,21.56h-7.54l-1.89-3.99h-12.22l-1.92,3.99H1.47l11.05-21.56ZM20.69,68.43l-3.69-7.72-3.69,7.72h7.39Z"/>
        <path class="cls-17" d="M34.96,55.93h7.06v15.62h14.38v5.95h-21.44v-21.56Z"/>
        <path class="cls-17" d="M59.29,55.93h7.06v21.56h-7.06v-21.56Z"/>
        <path class="cls-17" d="M70.46,55.93h11.02l6.4,13.42,6.37-13.42h10.99v21.56h-7.06v-14.87l-7.03,14.87h-6.58l-7.06-14.87v14.87h-7.06v-21.56Z"/>
        <path class="cls-17" d="M109.35,55.93h22.04v5.31h-14.98v3.03h14.38v4.83h-14.38v3.06h14.98v5.31h-22.04v-21.56Z"/>
        <path class="cls-17" d="M134.67,55.93h10.45l11.02,14.77v-14.77h7.06v21.56h-10.45l-11.02-14.8v14.8h-7.06v-21.56Z"/>
        <path class="cls-17" d="M166.18,55.93h25.64v5.95h-9.28v15.62h-7.06v-15.62h-9.31v-5.95Z"/>
        <path class="cls-17" d="M194.77,55.93h22.04v5.31h-14.98v3.03h14.38v4.83h-14.38v3.06h14.98v5.31h-22.04v-21.56Z"/>
        <path class="cls-17" d="M232.1,55.93h7.06v15.62h14.38v5.95h-21.44v-21.56Z"/>
        <path class="cls-17" d="M256.43,55.93h22.04v5.31h-14.98v3.03h14.38v4.83h-14.38v3.06h14.98v5.31h-22.04v-21.56Z"/>
        <path class="cls-17" d="M293.47,70.38h7.33c0,1.56,1.62,2.61,6.31,2.61s5.68-.66,5.68-1.8c0-1.32-.81-1.59-6.04-1.92l-1.05-.06c-8.26-.48-11.89-2.52-11.89-7.15s4.71-6.64,12.13-6.64c8.47,0,13,2.58,13.27,7.36h-7.33c0-1.65-1.95-2.25-6.01-2.25-3.81,0-4.75.6-4.75,1.53,0,1.11.81,1.53,5.65,1.86l1.23.09c7.36.57,12.1,1.35,12.1,6.91s-4.74,7.18-12.7,7.18c-8.68,0-13.66-2.07-13.93-7.72Z"/>
        <path class="cls-17" d="M322.75,66.95v-11.02h7.06v10.78c0,2.7,1.2,5.44,6.07,5.44s6.04-2.76,6.04-5.44v-10.78h7.09v11.02c0,7.24-3.9,11.14-13.12,11.14s-13.12-3.9-13.12-11.14Z"/>
        <path class="cls-17" d="M351.97,66.71c0-6.85,5.68-11.29,14.32-11.29,7.99,0,13.6,3.69,14.17,9.22h-7.51c-.36-1.86-2.94-3.3-6.67-3.3-4.23,0-6.97,2.16-6.97,5.38s2.73,5.44,6.97,5.44c3.72,0,6.31-1.44,6.67-3.33h7.51c-.57,5.58-6.19,9.28-14.17,9.28-8.65,0-14.32-4.47-14.32-11.38Z"/>
        <path class="cls-17" d="M383.15,66.71c0-6.85,5.68-11.29,14.32-11.29,7.99,0,13.6,3.69,14.17,9.22h-7.51c-.36-1.86-2.94-3.3-6.67-3.3-4.23,0-6.97,2.16-6.97,5.38s2.73,5.44,6.97,5.44c3.72,0,6.31-1.44,6.67-3.33h7.51c-.57,5.58-6.19,9.28-14.17,9.28-8.65,0-14.32-4.47-14.32-11.38Z"/>
        <path class="cls-17" d="M414.63,55.93h22.04v5.31h-14.98v3.03h14.38v4.83h-14.38v3.06h14.98v5.31h-22.04v-21.56ZM420.69,48.01l11.62,2.4v3.51l-11.62-2.4v-3.51Z"/>
        <path class="cls-17" d="M439.37,70.38h7.33c0,1.56,1.62,2.61,6.31,2.61s5.68-.66,5.68-1.8c0-1.32-.81-1.59-6.04-1.92l-1.05-.06c-8.26-.48-11.89-2.52-11.89-7.15s4.71-6.64,12.13-6.64c8.47,0,13,2.58,13.27,7.36h-7.33c0-1.65-1.95-2.25-6.01-2.25-3.81,0-4.75.6-4.75,1.53,0,1.11.81,1.53,5.65,1.86l1.23.09c7.36.57,12.1,1.35,12.1,6.91s-4.74,7.18-12.7,7.18c-8.68,0-13.66-2.07-13.93-7.72Z"/>
        <path class="cls-17" d="M468.99,72.03h7.33v5.46h-7.33v-5.46Z"/>
      </g>
    </g>
  </g>
</svg>