<?xml version="1.0" encoding="UTF-8"?>
<svg id="Layer_2" data-name="Layer 2" xmlns="http://www.w3.org/2000/svg" xmlns:xlink="http://www.w3.org/1999/xlink" viewBox="0 0 283.5332 283.5332">
  <defs>
    <style>
      .cls-1 {
        fill: #fff;
      }

      .cls-2 {
        fill: #353535;
      }

      .cls-3 {
        fill: url(#linear-gradient);
      }
    </style>
    <linearGradient id="linear-gradient" x1="0" y1="141.7666" x2="283.5332" y2="141.7666" gradientUnits="userSpaceOnUse">
      <stop offset=".2075" stop-color="#6d26fe"/>
      <stop offset=".8959" stop-color="#02def7"/>
    </linearGradient>
  </defs>
  <g id="Layer_1-2" data-name="Layer 1">
    <g>
      <path class="cls-1" d="M65.1172,145.7607c0-7.7285,5.208-12.6836,16.5479-15.1201-7.4766-2.4355-11.5078-6.8877-11.5078-14.0273,0-10.332,10.752-16.0439,30.7441-16.0439,20.0762,0,30.6602,5.7959,30.6602,16.0439,0,7.0557-3.9492,11.5918-11.5088,14.0273,11.4248,2.3525,16.6318,7.3916,16.6318,15.1201,0,10.8359-7.8955,18.2275-35.7832,18.2275-27.9727,0-35.7842-7.3076-35.7842-18.2275ZM100.9014,151.2207c10.1641,0,14.4473-2.5205,14.4473-6.8877,0-4.4521-4.1992-6.8047-14.4473-6.8047s-14.4482,2.2686-14.4482,6.8047c0,4.4512,4.2002,6.8877,14.4482,6.8877ZM100.9014,123.501c8.9033,0,11.7598-1.9326,11.7598-5.46s-2.9404-5.5439-11.7598-5.5439-11.7598,2.0156-11.7598,5.5439,2.9395,5.46,11.7598,5.46Z"/>
      <path class="cls-1" d="M146.7646,145.7607c0-7.7285,5.207-12.6836,16.5469-15.1201-7.4756-2.4355-11.5078-6.8877-11.5078-14.0273,0-10.332,10.752-16.0439,30.7441-16.0439,20.0762,0,30.6602,5.7959,30.6602,16.0439,0,7.0557-3.9482,11.5918-11.5078,14.0273,11.4238,2.3525,16.6309,7.3916,16.6309,15.1201,0,10.8359-7.8945,18.2275-35.7832,18.2275-27.9717,0-35.7832-7.3076-35.7832-18.2275ZM182.5479,151.2207c10.1641,0,14.4482-2.5205,14.4482-6.8877,0-4.4521-4.2002-6.8047-14.4482-6.8047s-14.4473,2.2686-14.4473,6.8047c0,4.4512,4.1992,6.8877,14.4473,6.8877ZM182.5479,123.501c8.9043,0,11.7598-1.9326,11.7598-5.46s-2.9395-5.5439-11.7598-5.5439-11.7598,2.0156-11.7598,5.5439,2.9395,5.46,11.7598,5.46Z"/>
    </g>
    <path class="cls-1" d="M123.8916,174.1934c8.873,0,12.7119,5.7324,12.7119,11.0664,0,5.3848-3.8389,11.1172-12.7119,11.1172-8.8232,0-12.7119-5.7324-12.7119-11.1172,0-5.334,3.8887-11.0664,12.7119-11.0664ZM123.8916,192.1895c4.5361,0,7.5771-2.7422,7.5771-6.9785,0-4.1875-3.041-6.8789-7.5771-6.8789-4.4863,0-7.5273,2.6914-7.5273,6.8789,0,4.2363,3.041,6.9785,7.5273,6.9785ZM152.0566,175.041h5.7334l-26.3213,35.4434h-5.7324l26.3203-35.4434ZM159.6348,189.2988c8.8232,0,12.6611,5.7324,12.6611,11.1172,0,5.334-3.8379,11.0664-12.6611,11.0664-8.874,0-12.7119-5.7324-12.7119-11.0664,0-5.3848,3.8379-11.1172,12.7119-11.1172ZM159.6348,207.3438c4.4863,0,7.5273-2.7422,7.5273-6.9277,0-4.2383-3.041-6.9297-7.5273-6.9297-4.5371,0-7.5781,2.6914-7.5781,6.9297,0,4.1855,3.041,6.9277,7.5781,6.9277Z"/>
    <path class="cls-2" d="M141.7666,283.5332C63.5967,283.5332,0,219.9365,0,141.7666S63.5967,0,141.7666,0s141.7666,63.5967,141.7666,141.7666-63.5967,141.7666-141.7666,141.7666ZM141.7666,32c-60.5254,0-109.7666,49.2412-109.7666,109.7666s49.2412,109.7666,109.7666,109.7666,109.7666-49.2412,109.7666-109.7666-49.2412-109.7666-109.7666-109.7666Z"/>
    <path class="cls-3" d="M141.7666,283.5332C63.5967,283.5332,0,219.9365,0,141.7666c0-37.3652,14.4111-72.627,40.5781-99.292,6.1904-6.3057,16.3193-6.4014,22.627-.2129,6.3066,6.1895,6.4023,16.3193.2129,22.627-20.2607,20.6445-31.418,47.9473-31.418,76.8779,0,60.5254,49.2412,109.7666,109.7666,109.7666s109.7666-49.2412,109.7666-109.7666-49.2412-109.7666-109.7666-109.7666c-8.8369,0-16-7.1631-16-16S132.9297,0,141.7666,0c78.1699,0,141.7666,63.5967,141.7666,141.7666s-63.5967,141.7666-141.7666,141.7666Z"/>
  </g>
</svg>