<?xml version="1.0" encoding="UTF-8"?>
<svg id="Layer_2" data-name="Layer 2" xmlns="http://www.w3.org/2000/svg" xmlns:xlink="http://www.w3.org/1999/xlink" viewBox="0 0 283.5332 283.5332">
  <defs>
    <style>
      .cls-1 {
        fill: #fff;
      }

      .cls-2 {
        fill: #353535;
      }

      .cls-3 {
        fill: url(#linear-gradient);
      }
    </style>
    <linearGradient id="linear-gradient" x1="5.1691" y1="141.7666" x2="283.5332" y2="141.7666" gradientUnits="userSpaceOnUse">
      <stop offset=".2075" stop-color="#6d26fe"/>
      <stop offset=".8959" stop-color="#02def7"/>
    </linearGradient>
  </defs>
  <g id="Layer_1-2" data-name="Layer 1">
    <g>
      <g>
        <path class="cls-1" d="M117.1128,116.9492h-40.5718v-14.9521h61.9077v14.9521c-21.252,13.3555-29.2319,27.0479-29.2319,45.3594h-19.7397c0-16.2959,5.8799-33.0117,27.6357-45.3594Z"/>
        <path class="cls-1" d="M177.1729,152.7324h-41.4116v-14.1953l41.4116-36.54h19.7402v36.54h10.2476v14.1953h-10.2476v9.5762h-19.7402v-9.5762ZM177.1729,138.5371v-19.4883l-21.252,19.4883h21.252Z"/>
      </g>
      <path class="cls-1" d="M123.8916,178.2812c8.8735,0,12.7119,5.7324,12.7119,11.0664,0,5.3848-3.8384,11.1172-12.7119,11.1172-8.8232,0-12.7119-5.7324-12.7119-11.1172,0-5.334,3.8887-11.0664,12.7119-11.0664ZM123.8916,196.2773c4.5366,0,7.5776-2.7422,7.5776-6.9785,0-4.1875-3.041-6.8789-7.5776-6.8789-4.4863,0-7.5273,2.6914-7.5273,6.8789,0,4.2363,3.041,6.9785,7.5273,6.9785ZM152.0571,179.1289h5.7329l-26.3208,35.4434h-5.7329l26.3208-35.4434ZM159.6348,193.3867c8.8232,0,12.6616,5.7324,12.6616,11.1172,0,5.334-3.8384,11.0664-12.6616,11.0664-8.8735,0-12.7119-5.7324-12.7119-11.0664,0-5.3848,3.8384-11.1172,12.7119-11.1172ZM159.6348,211.4316c4.4863,0,7.5273-2.7422,7.5273-6.9277,0-4.2383-3.041-6.9297-7.5273-6.9297-4.5366,0-7.5776,2.6914-7.5776,6.9297,0,4.1855,3.041,6.9277,7.5776,6.9277Z"/>
      <path class="cls-2" d="M141.7666,283.5332C63.5962,283.5332,0,219.9365,0,141.7666S63.5962,0,141.7666,0s141.7666,63.5967,141.7666,141.7666-63.5962,141.7666-141.7666,141.7666ZM141.7666,32c-60.5254,0-109.7666,49.2412-109.7666,109.7666s49.2412,109.7666,109.7666,109.7666,109.7666-49.2412,109.7666-109.7666-49.2412-109.7666-109.7666-109.7666Z"/>
      <path class="cls-3" d="M141.7666,283.5332c-31.1816,0-60.7671-9.9316-85.5581-28.7197-23.9741-18.1699-41.8643-43.9834-50.375-72.6836-2.5122-8.4717,2.3193-17.377,10.791-19.8887,8.4707-2.5117,17.3765,2.3184,19.8887,10.791,13.7056,46.2207,56.9873,78.501,105.2534,78.501,60.5254,0,109.7666-49.2412,109.7666-109.7666s-49.2412-109.7666-109.7666-109.7666c-8.8364,0-16-7.1631-16-16S132.9302,0,141.7666,0c78.1704,0,141.7666,63.5967,141.7666,141.7666s-63.5962,141.7666-141.7666,141.7666Z"/>
    </g>
  </g>
</svg>