<?xml version="1.0" encoding="UTF-8"?>
<svg id="Layer_2" data-name="Layer 2" xmlns="http://www.w3.org/2000/svg" xmlns:xlink="http://www.w3.org/1999/xlink" viewBox="0 0 1915.65 1741.67">
  <defs>
    <style>
      .cls-1 {
        fill: url(#linear-gradient);
      }
    </style>
    <linearGradient id="linear-gradient" x1="957.83" y1="-564.4" x2="957.83" y2="1712.41" gradientUnits="userSpaceOnUse">
      <stop offset=".16" stop-color="#4b4b4b"/>
      <stop offset=".74" stop-color="#1a1a1a" stop-opacity="0"/>
    </linearGradient>
  </defs>
  <g id="Layer_1-2" data-name="Layer 1">
    <path class="cls-1" d="M1901.9,0H0v1741.67h1915.65V0h-13.75ZM1828.62.22h86.85v86.85h-86.85V.22ZM1828.62,87.29h86.85v86.85h-86.85v-86.85ZM1828.62,174.36h86.85v86.85h-86.85v-86.85ZM1828.62,261.43h86.85v86.85h-86.85v-86.85ZM1828.62,348.51h86.85v86.85h-86.85v-86.85ZM1828.62,435.58h86.85v86.85h-86.85v-86.85ZM1828.62,522.65h86.85v86.85h-86.85v-86.85ZM1828.62,609.72h86.85v86.85h-86.85v-86.85ZM1828.62,696.8h86.85v86.85h-86.85v-86.85ZM1828.62,783.87h86.85v86.85h-86.85v-86.85ZM1741.56.22h86.85v86.85h-86.85V.22ZM1741.56,87.29h86.85v86.85h-86.85v-86.85ZM1741.56,174.36h86.85v86.85h-86.85v-86.85ZM1741.56,261.43h86.85v86.85h-86.85v-86.85ZM1741.56,348.51h86.85v86.85h-86.85v-86.85ZM1741.56,435.58h86.85v86.85h-86.85v-86.85ZM1741.56,522.65h86.85v86.85h-86.85v-86.85ZM1741.56,609.72h86.85v86.85h-86.85v-86.85ZM1741.56,696.8h86.85v86.85h-86.85v-86.85ZM1741.56,783.87h86.85v86.85h-86.85v-86.85ZM1654.49.22h86.85v86.85h-86.85V.22ZM1654.49,87.29h86.85v86.85h-86.85v-86.85ZM1654.49,174.36h86.85v86.85h-86.85v-86.85ZM1654.49,261.43h86.85v86.85h-86.85v-86.85ZM1654.49,348.51h86.85v86.85h-86.85v-86.85ZM1654.49,435.58h86.85v86.85h-86.85v-86.85ZM1654.49,522.65h86.85v86.85h-86.85v-86.85ZM1654.49,609.72h86.85v86.85h-86.85v-86.85ZM1654.49,696.8h86.85v86.85h-86.85v-86.85ZM1654.49,783.87h86.85v86.85h-86.85v-86.85ZM1567.42.22h86.85v86.85h-86.85V.22ZM1567.42,87.29h86.85v86.85h-86.85v-86.85ZM1567.42,174.36h86.85v86.85h-86.85v-86.85ZM1567.42,261.43h86.85v86.85h-86.85v-86.85ZM1567.42,348.51h86.85v86.85h-86.85v-86.85ZM1567.42,435.58h86.85v86.85h-86.85v-86.85ZM1567.42,522.65h86.85v86.85h-86.85v-86.85ZM1567.42,609.72h86.85v86.85h-86.85v-86.85ZM1567.42,696.8h86.85v86.85h-86.85v-86.85ZM1567.42,783.87h86.85v86.85h-86.85v-86.85ZM1480.36.22h86.85v86.85h-86.85V.22ZM1480.36,87.29h86.85v86.85h-86.85v-86.85ZM1480.36,174.36h86.85v86.85h-86.85v-86.85ZM1480.36,261.43h86.85v86.85h-86.85v-86.85ZM1480.36,348.51h86.85v86.85h-86.85v-86.85ZM1480.36,435.58h86.85v86.85h-86.85v-86.85ZM1480.36,522.65h86.85v86.85h-86.85v-86.85ZM1480.36,609.72h86.85v86.85h-86.85v-86.85ZM1480.36,696.8h86.85v86.85h-86.85v-86.85ZM1480.36,783.87h86.85v86.85h-86.85v-86.85ZM1393.29.22h86.85v86.85h-86.85V.22ZM1393.29,87.29h86.85v86.85h-86.85v-86.85ZM1393.29,174.36h86.85v86.85h-86.85v-86.85ZM1393.29,261.43h86.85v86.85h-86.85v-86.85ZM1393.29,348.51h86.85v86.85h-86.85v-86.85ZM1393.29,435.58h86.85v86.85h-86.85v-86.85ZM1393.29,522.65h86.85v86.85h-86.85v-86.85ZM1393.29,609.72h86.85v86.85h-86.85v-86.85ZM1393.29,696.8h86.85v86.85h-86.85v-86.85ZM1393.29,783.87h86.85v86.85h-86.85v-86.85ZM1306.22.22h86.85v86.85h-86.85V.22ZM1306.22,87.29h86.85v86.85h-86.85v-86.85ZM1306.22,174.36h86.85v86.85h-86.85v-86.85ZM1306.22,261.43h86.85v86.85h-86.85v-86.85ZM1306.22,348.51h86.85v86.85h-86.85v-86.85ZM1306.22,435.58h86.85v86.85h-86.85v-86.85ZM1306.22,522.65h86.85v86.85h-86.85v-86.85ZM1306.22,609.72h86.85v86.85h-86.85v-86.85ZM1306.22,696.8h86.85v86.85h-86.85v-86.85ZM1306.22,783.87h86.85v86.85h-86.85v-86.85ZM1219.16.22h86.85v86.85h-86.85V.22ZM1219.16,87.29h86.85v86.85h-86.85v-86.85ZM1219.16,174.36h86.85v86.85h-86.85v-86.85ZM1219.16,261.43h86.85v86.85h-86.85v-86.85ZM1219.16,348.51h86.85v86.85h-86.85v-86.85ZM1219.16,435.58h86.85v86.85h-86.85v-86.85ZM1219.16,522.65h86.85v86.85h-86.85v-86.85ZM1219.16,609.72h86.85v86.85h-86.85v-86.85ZM1219.16,696.8h86.85v86.85h-86.85v-86.85ZM1219.16,783.87h86.85v86.85h-86.85v-86.85ZM1132.09.22h86.85v86.85h-86.85V.22ZM1132.09,87.29h86.85v86.85h-86.85v-86.85ZM1132.09,174.36h86.85v86.85h-86.85v-86.85ZM1132.09,261.43h86.85v86.85h-86.85v-86.85ZM1132.09,348.51h86.85v86.85h-86.85v-86.85ZM1132.09,435.58h86.85v86.85h-86.85v-86.85ZM1132.09,522.65h86.85v86.85h-86.85v-86.85ZM1132.09,609.72h86.85v86.85h-86.85v-86.85ZM1132.09,696.8h86.85v86.85h-86.85v-86.85ZM1132.09,783.87h86.85v86.85h-86.85v-86.85ZM1045.02.22h86.85v86.85h-86.85V.22ZM1045.02,87.29h86.85v86.85h-86.85v-86.85ZM1045.02,174.36h86.85v86.85h-86.85v-86.85ZM1045.02,261.43h86.85v86.85h-86.85v-86.85ZM1045.02,348.51h86.85v86.85h-86.85v-86.85ZM1045.02,435.58h86.85v86.85h-86.85v-86.85ZM1045.02,522.65h86.85v86.85h-86.85v-86.85ZM1045.02,609.72h86.85v86.85h-86.85v-86.85ZM1045.02,696.8h86.85v86.85h-86.85v-86.85ZM1045.02,783.87h86.85v86.85h-86.85v-86.85ZM957.95.22h86.85v86.85h-86.85V.22ZM957.95,87.29h86.85v86.85h-86.85v-86.85ZM957.95,174.36h86.85v86.85h-86.85v-86.85ZM957.95,261.43h86.85v86.85h-86.85v-86.85ZM957.95,348.51h86.85v86.85h-86.85v-86.85ZM957.95,435.58h86.85v86.85h-86.85v-86.85ZM957.95,522.65h86.85v86.85h-86.85v-86.85ZM957.95,609.72h86.85v86.85h-86.85v-86.85ZM957.95,696.8h86.85v86.85h-86.85v-86.85ZM957.95,783.87h86.85v86.85h-86.85v-86.85ZM870.89.22h86.85v86.85h-86.85V.22ZM870.89,87.29h86.85v86.85h-86.85v-86.85ZM870.89,174.36h86.85v86.85h-86.85v-86.85ZM870.89,261.43h86.85v86.85h-86.85v-86.85ZM870.89,348.51h86.85v86.85h-86.85v-86.85ZM870.89,435.58h86.85v86.85h-86.85v-86.85ZM870.89,522.65h86.85v86.85h-86.85v-86.85ZM870.89,609.72h86.85v86.85h-86.85v-86.85ZM870.89,696.8h86.85v86.85h-86.85v-86.85ZM870.89,783.87h86.85v86.85h-86.85v-86.85ZM783.82.22h86.85v86.85h-86.85V.22ZM783.82,87.29h86.85v86.85h-86.85v-86.85ZM783.82,174.36h86.85v86.85h-86.85v-86.85ZM783.82,261.43h86.85v86.85h-86.85v-86.85ZM783.82,348.51h86.85v86.85h-86.85v-86.85ZM783.82,435.58h86.85v86.85h-86.85v-86.85ZM783.82,522.65h86.85v86.85h-86.85v-86.85ZM783.82,609.72h86.85v86.85h-86.85v-86.85ZM783.82,696.8h86.85v86.85h-86.85v-86.85ZM783.82,783.87h86.85v86.85h-86.85v-86.85ZM696.75.22h86.85v86.85h-86.85V.22ZM696.75,87.29h86.85v86.85h-86.85v-86.85ZM696.75,174.36h86.85v86.85h-86.85v-86.85ZM696.75,261.43h86.85v86.85h-86.85v-86.85ZM696.75,348.51h86.85v86.85h-86.85v-86.85ZM696.75,435.58h86.85v86.85h-86.85v-86.85ZM696.75,522.65h86.85v86.85h-86.85v-86.85ZM696.75,609.72h86.85v86.85h-86.85v-86.85ZM696.75,696.8h86.85v86.85h-86.85v-86.85ZM696.75,783.87h86.85v86.85h-86.85v-86.85ZM609.69.22h86.85v86.85h-86.85V.22ZM609.69,87.29h86.85v86.85h-86.85v-86.85ZM609.69,174.36h86.85v86.85h-86.85v-86.85ZM609.69,261.43h86.85v86.85h-86.85v-86.85ZM609.69,348.51h86.85v86.85h-86.85v-86.85ZM609.69,435.58h86.85v86.85h-86.85v-86.85ZM609.69,522.65h86.85v86.85h-86.85v-86.85ZM609.69,609.72h86.85v86.85h-86.85v-86.85ZM609.69,696.8h86.85v86.85h-86.85v-86.85ZM609.69,783.87h86.85v86.85h-86.85v-86.85ZM522.62.22h86.85v86.85h-86.85V.22ZM522.62,87.29h86.85v86.85h-86.85v-86.85ZM522.62,174.36h86.85v86.85h-86.85v-86.85ZM522.62,261.43h86.85v86.85h-86.85v-86.85ZM522.62,348.51h86.85v86.85h-86.85v-86.85ZM522.62,435.58h86.85v86.85h-86.85v-86.85ZM522.62,522.65h86.85v86.85h-86.85v-86.85ZM522.62,609.72h86.85v86.85h-86.85v-86.85ZM522.62,696.8h86.85v86.85h-86.85v-86.85ZM522.62,783.87h86.85v86.85h-86.85v-86.85ZM435.55.22h86.85v86.85h-86.85V.22ZM435.55,87.29h86.85v86.85h-86.85v-86.85ZM435.55,174.36h86.85v86.85h-86.85v-86.85ZM435.55,261.43h86.85v86.85h-86.85v-86.85ZM435.55,348.51h86.85v86.85h-86.85v-86.85ZM435.55,435.58h86.85v86.85h-86.85v-86.85ZM435.55,522.65h86.85v86.85h-86.85v-86.85ZM435.55,609.72h86.85v86.85h-86.85v-86.85ZM435.55,696.8h86.85v86.85h-86.85v-86.85ZM435.55,783.87h86.85v86.85h-86.85v-86.85ZM348.48.22h86.85v86.85h-86.85V.22ZM348.48,87.29h86.85v86.85h-86.85v-86.85ZM348.48,174.36h86.85v86.85h-86.85v-86.85ZM348.48,261.43h86.85v86.85h-86.85v-86.85ZM348.48,348.51h86.85v86.85h-86.85v-86.85ZM348.48,435.58h86.85v86.85h-86.85v-86.85ZM348.48,522.65h86.85v86.85h-86.85v-86.85ZM348.48,609.72h86.85v86.85h-86.85v-86.85ZM348.48,696.8h86.85v86.85h-86.85v-86.85ZM348.48,783.87h86.85v86.85h-86.85v-86.85ZM261.42.22h86.85v86.85h-86.85V.22ZM261.42,87.29h86.85v86.85h-86.85v-86.85ZM261.42,174.36h86.85v86.85h-86.85v-86.85ZM261.42,261.43h86.85v86.85h-86.85v-86.85ZM261.42,348.51h86.85v86.85h-86.85v-86.85ZM261.42,435.58h86.85v86.85h-86.85v-86.85ZM261.42,522.65h86.85v86.85h-86.85v-86.85ZM261.42,609.72h86.85v86.85h-86.85v-86.85ZM261.42,696.8h86.85v86.85h-86.85v-86.85ZM261.42,783.87h86.85v86.85h-86.85v-86.85ZM174.35.22h86.85v86.85h-86.85V.22ZM174.35,87.29h86.85v86.85h-86.85v-86.85ZM174.35,174.36h86.85v86.85h-86.85v-86.85ZM174.35,261.43h86.85v86.85h-86.85v-86.85ZM174.35,348.51h86.85v86.85h-86.85v-86.85ZM174.35,435.58h86.85v86.85h-86.85v-86.85ZM174.35,522.65h86.85v86.85h-86.85v-86.85ZM174.35,609.72h86.85v86.85h-86.85v-86.85ZM174.35,696.8h86.85v86.85h-86.85v-86.85ZM174.35,783.87h86.85v86.85h-86.85v-86.85ZM87.28.22h86.85v86.85h-86.85V.22ZM87.28,87.29h86.85v86.85h-86.85v-86.85ZM87.28,174.36h86.85v86.85h-86.85v-86.85ZM87.28,261.43h86.85v86.85h-86.85v-86.85ZM87.28,348.51h86.85v86.85h-86.85v-86.85ZM87.28,435.58h86.85v86.85h-86.85v-86.85ZM87.28,522.65h86.85v86.85h-86.85v-86.85ZM87.28,609.72h86.85v86.85h-86.85v-86.85ZM87.28,696.8h86.85v86.85h-86.85v-86.85ZM87.28,783.87h86.85v86.85h-86.85v-86.85ZM.22.22h86.85v86.85H.22V.22ZM.22,87.29h86.85v86.85H.22v-86.85ZM.22,174.36h86.85v86.85H.22v-86.85ZM.22,261.43h86.85v86.85H.22v-86.85ZM.22,348.51h86.85v86.85H.22v-86.85ZM.22,435.58h86.85v86.85H.22v-86.85ZM.22,522.65h86.85v86.85H.22v-86.85ZM.22,609.72h86.85v86.85H.22v-86.85ZM.22,696.8h86.85v86.85H.22v-86.85ZM.22,783.87h86.85v86.85H.22v-86.85ZM87.07,1741.45H.22v-86.85h86.85v86.85ZM87.07,1654.38H.22v-86.85h86.85v86.85ZM87.07,1567.31H.22v-86.85h86.85v86.85ZM87.07,1480.24H.22v-86.85h86.85v86.85ZM87.07,1393.16H.22v-86.85h86.85v86.85ZM87.07,1306.09H.22v-86.85h86.85v86.85ZM87.07,1219.02H.22v-86.85h86.85v86.85ZM87.07,1131.94H.22v-86.85h86.85v86.85ZM87.07,1044.87H.22v-86.85h86.85v86.85ZM87.07,957.8H.22v-86.85h86.85v86.85ZM174.13,1741.45h-86.85v-86.85h86.85v86.85ZM174.13,1654.38h-86.85v-86.85h86.85v86.85ZM174.13,1567.31h-86.85v-86.85h86.85v86.85ZM174.13,1480.24h-86.85v-86.85h86.85v86.85ZM174.13,1393.16h-86.85v-86.85h86.85v86.85ZM174.13,1306.09h-86.85v-86.85h86.85v86.85ZM174.13,1219.02h-86.85v-86.85h86.85v86.85ZM174.13,1131.94h-86.85v-86.85h86.85v86.85ZM174.13,1044.87h-86.85v-86.85h86.85v86.85ZM174.13,957.8h-86.85v-86.85h86.85v86.85ZM261.2,1741.45h-86.85v-86.85h86.85v86.85ZM261.2,1654.38h-86.85v-86.85h86.85v86.85ZM261.2,1567.31h-86.85v-86.85h86.85v86.85ZM261.2,1480.24h-86.85v-86.85h86.85v86.85ZM261.2,1393.16h-86.85v-86.85h86.85v86.85ZM261.2,1306.09h-86.85v-86.85h86.85v86.85ZM261.2,1219.02h-86.85v-86.85h86.85v86.85ZM261.2,1131.94h-86.85v-86.85h86.85v86.85ZM261.2,1044.87h-86.85v-86.85h86.85v86.85ZM261.2,957.8h-86.85v-86.85h86.85v86.85ZM348.27,1741.45h-86.85v-86.85h86.85v86.85ZM348.27,1654.38h-86.85v-86.85h86.85v86.85ZM348.27,1567.31h-86.85v-86.85h86.85v86.85ZM348.27,1480.24h-86.85v-86.85h86.85v86.85ZM348.27,1393.16h-86.85v-86.85h86.85v86.85ZM348.27,1306.09h-86.85v-86.85h86.85v86.85ZM348.27,1219.02h-86.85v-86.85h86.85v86.85ZM348.27,1131.94h-86.85v-86.85h86.85v86.85ZM348.27,1044.87h-86.85v-86.85h86.85v86.85ZM348.27,957.8h-86.85v-86.85h86.85v86.85ZM435.34,1741.45h-86.85v-86.85h86.85v86.85ZM435.34,1654.38h-86.85v-86.85h86.85v86.85ZM435.34,1567.31h-86.85v-86.85h86.85v86.85ZM435.34,1480.24h-86.85v-86.85h86.85v86.85ZM435.34,1393.16h-86.85v-86.85h86.85v86.85ZM435.34,1306.09h-86.85v-86.85h86.85v86.85ZM435.34,1219.02h-86.85v-86.85h86.85v86.85ZM435.34,1131.94h-86.85v-86.85h86.85v86.85ZM435.34,1044.87h-86.85v-86.85h86.85v86.85ZM435.34,957.8h-86.85v-86.85h86.85v86.85ZM522.4,1741.45h-86.85v-86.85h86.85v86.85ZM522.4,1654.38h-86.85v-86.85h86.85v86.85ZM522.4,1567.31h-86.85v-86.85h86.85v86.85ZM522.4,1480.24h-86.85v-86.85h86.85v86.85ZM522.4,1393.16h-86.85v-86.85h86.85v86.85ZM522.4,1306.09h-86.85v-86.85h86.85v86.85ZM522.4,1219.02h-86.85v-86.85h86.85v86.85ZM522.4,1131.94h-86.85v-86.85h86.85v86.85ZM522.4,1044.87h-86.85v-86.85h86.85v86.85ZM522.4,957.8h-86.85v-86.85h86.85v86.85ZM609.47,1741.45h-86.85v-86.85h86.85v86.85ZM609.47,1654.38h-86.85v-86.85h86.85v86.85ZM609.47,1567.31h-86.85v-86.85h86.85v86.85ZM609.47,1480.24h-86.85v-86.85h86.85v86.85ZM609.47,1393.16h-86.85v-86.85h86.85v86.85ZM609.47,1306.09h-86.85v-86.85h86.85v86.85ZM609.47,1219.02h-86.85v-86.85h86.85v86.85ZM609.47,1131.94h-86.85v-86.85h86.85v86.85ZM609.47,1044.87h-86.85v-86.85h86.85v86.85ZM609.47,957.8h-86.85v-86.85h86.85v86.85ZM696.54,1741.45h-86.85v-86.85h86.85v86.85ZM696.54,1654.38h-86.85v-86.85h86.85v86.85ZM696.54,1567.31h-86.85v-86.85h86.85v86.85ZM696.54,1480.24h-86.85v-86.85h86.85v86.85ZM696.54,1393.16h-86.85v-86.85h86.85v86.85ZM696.54,1306.09h-86.85v-86.85h86.85v86.85ZM696.54,1219.02h-86.85v-86.85h86.85v86.85ZM696.54,1131.94h-86.85v-86.85h86.85v86.85ZM696.54,1044.87h-86.85v-86.85h86.85v86.85ZM696.54,957.8h-86.85v-86.85h86.85v86.85ZM783.6,1741.45h-86.85v-86.85h86.85v86.85ZM783.6,1654.38h-86.85v-86.85h86.85v86.85ZM783.6,1567.31h-86.85v-86.85h86.85v86.85ZM783.6,1480.24h-86.85v-86.85h86.85v86.85ZM783.6,1393.16h-86.85v-86.85h86.85v86.85ZM783.6,1306.09h-86.85v-86.85h86.85v86.85ZM783.6,1219.02h-86.85v-86.85h86.85v86.85ZM783.6,1131.94h-86.85v-86.85h86.85v86.85ZM783.6,1044.87h-86.85v-86.85h86.85v86.85ZM783.6,957.8h-86.85v-86.85h86.85v86.85ZM870.67,1741.45h-86.85v-86.85h86.85v86.85ZM870.67,1654.38h-86.85v-86.85h86.85v86.85ZM870.67,1567.31h-86.85v-86.85h86.85v86.85ZM870.67,1480.24h-86.85v-86.85h86.85v86.85ZM870.67,1393.16h-86.85v-86.85h86.85v86.85ZM870.67,1306.09h-86.85v-86.85h86.85v86.85ZM870.67,1219.02h-86.85v-86.85h86.85v86.85ZM870.67,1131.94h-86.85v-86.85h86.85v86.85ZM870.67,1044.87h-86.85v-86.85h86.85v86.85ZM870.67,957.8h-86.85v-86.85h86.85v86.85ZM957.74,1741.45h-86.85v-86.85h86.85v86.85ZM957.74,1654.38h-86.85v-86.85h86.85v86.85ZM957.74,1567.31h-86.85v-86.85h86.85v86.85ZM957.74,1480.24h-86.85v-86.85h86.85v86.85ZM957.74,1393.16h-86.85v-86.85h86.85v86.85ZM957.74,1306.09h-86.85v-86.85h86.85v86.85ZM957.74,1219.02h-86.85v-86.85h86.85v86.85ZM957.74,1131.94h-86.85v-86.85h86.85v86.85ZM957.74,1044.87h-86.85v-86.85h86.85v86.85ZM957.74,957.8h-86.85v-86.85h86.85v86.85ZM1044.81,1741.45h-86.85v-86.85h86.85v86.85ZM1044.81,1654.38h-86.85v-86.85h86.85v86.85ZM1044.81,1567.31h-86.85v-86.85h86.85v86.85ZM1044.81,1480.24h-86.85v-86.85h86.85v86.85ZM1044.81,1393.16h-86.85v-86.85h86.85v86.85ZM1044.81,1306.09h-86.85v-86.85h86.85v86.85ZM1044.81,1219.02h-86.85v-86.85h86.85v86.85ZM1044.81,1131.94h-86.85v-86.85h86.85v86.85ZM1044.81,1044.87h-86.85v-86.85h86.85v86.85ZM1044.81,957.8h-86.85v-86.85h86.85v86.85ZM1131.87,1741.45h-86.85v-86.85h86.85v86.85ZM1131.87,1654.38h-86.85v-86.85h86.85v86.85ZM1131.87,1567.31h-86.85v-86.85h86.85v86.85ZM1131.87,1480.24h-86.85v-86.85h86.85v86.85ZM1131.87,1393.16h-86.85v-86.85h86.85v86.85ZM1131.87,1306.09h-86.85v-86.85h86.85v86.85ZM1131.87,1219.02h-86.85v-86.85h86.85v86.85ZM1131.87,1131.94h-86.85v-86.85h86.85v86.85ZM1131.87,1044.87h-86.85v-86.85h86.85v86.85ZM1131.87,957.8h-86.85v-86.85h86.85v86.85ZM1218.94,1741.45h-86.85v-86.85h86.85v86.85ZM1218.94,1654.38h-86.85v-86.85h86.85v86.85ZM1218.94,1567.31h-86.85v-86.85h86.85v86.85ZM1218.94,1480.24h-86.85v-86.85h86.85v86.85ZM1218.94,1393.16h-86.85v-86.85h86.85v86.85ZM1218.94,1306.09h-86.85v-86.85h86.85v86.85ZM1218.94,1219.02h-86.85v-86.85h86.85v86.85ZM1218.94,1131.94h-86.85v-86.85h86.85v86.85ZM1218.94,1044.87h-86.85v-86.85h86.85v86.85ZM1218.94,957.8h-86.85v-86.85h86.85v86.85ZM1306.01,1741.45h-86.85v-86.85h86.85v86.85ZM1306.01,1654.38h-86.85v-86.85h86.85v86.85ZM1306.01,1567.31h-86.85v-86.85h86.85v86.85ZM1306.01,1480.24h-86.85v-86.85h86.85v86.85ZM1306.01,1393.16h-86.85v-86.85h86.85v86.85ZM1306.01,1306.09h-86.85v-86.85h86.85v86.85ZM1306.01,1219.02h-86.85v-86.85h86.85v86.85ZM1306.01,1131.94h-86.85v-86.85h86.85v86.85ZM1306.01,1044.87h-86.85v-86.85h86.85v86.85ZM1306.01,957.8h-86.85v-86.85h86.85v86.85ZM1393.07,1741.45h-86.85v-86.85h86.85v86.85ZM1393.07,1654.38h-86.85v-86.85h86.85v86.85ZM1393.07,1567.31h-86.85v-86.85h86.85v86.85ZM1393.07,1480.24h-86.85v-86.85h86.85v86.85ZM1393.07,1393.16h-86.85v-86.85h86.85v86.85ZM1393.07,1306.09h-86.85v-86.85h86.85v86.85ZM1393.07,1219.02h-86.85v-86.85h86.85v86.85ZM1393.07,1131.94h-86.85v-86.85h86.85v86.85ZM1393.07,1044.87h-86.85v-86.85h86.85v86.85ZM1393.07,957.8h-86.85v-86.85h86.85v86.85ZM1480.14,1741.45h-86.85v-86.85h86.85v86.85ZM1480.14,1654.38h-86.85v-86.85h86.85v86.85ZM1480.14,1567.31h-86.85v-86.85h86.85v86.85ZM1480.14,1480.24h-86.85v-86.85h86.85v86.85ZM1480.14,1393.16h-86.85v-86.85h86.85v86.85ZM1480.14,1306.09h-86.85v-86.85h86.85v86.85ZM1480.14,1219.02h-86.85v-86.85h86.85v86.85ZM1480.14,1131.94h-86.85v-86.85h86.85v86.85ZM1480.14,1044.87h-86.85v-86.85h86.85v86.85ZM1480.14,957.8h-86.85v-86.85h86.85v86.85ZM1567.21,1741.45h-86.85v-86.85h86.85v86.85ZM1567.21,1654.38h-86.85v-86.85h86.85v86.85ZM1567.21,1567.31h-86.85v-86.85h86.85v86.85ZM1567.21,1480.24h-86.85v-86.85h86.85v86.85ZM1567.21,1393.16h-86.85v-86.85h86.85v86.85ZM1567.21,1306.09h-86.85v-86.85h86.85v86.85ZM1567.21,1219.02h-86.85v-86.85h86.85v86.85ZM1567.21,1131.94h-86.85v-86.85h86.85v86.85ZM1567.21,1044.87h-86.85v-86.85h86.85v86.85ZM1567.21,957.8h-86.85v-86.85h86.85v86.85ZM1654.28,1741.45h-86.85v-86.85h86.85v86.85ZM1654.28,1654.38h-86.85v-86.85h86.85v86.85ZM1654.28,1567.31h-86.85v-86.85h86.85v86.85ZM1654.28,1480.24h-86.85v-86.85h86.85v86.85ZM1654.28,1393.16h-86.85v-86.85h86.85v86.85ZM1654.28,1306.09h-86.85v-86.85h86.85v86.85ZM1654.28,1219.02h-86.85v-86.85h86.85v86.85ZM1654.28,1131.94h-86.85v-86.85h86.85v86.85ZM1654.28,1044.87h-86.85v-86.85h86.85v86.85ZM1654.28,957.8h-86.85v-86.85h86.85v86.85ZM1741.34,1741.45h-86.85v-86.85h86.85v86.85ZM1741.34,1654.38h-86.85v-86.85h86.85v86.85ZM1741.34,1567.31h-86.85v-86.85h86.85v86.85ZM1741.34,1480.24h-86.85v-86.85h86.85v86.85ZM1741.34,1393.16h-86.85v-86.85h86.85v86.85ZM1741.34,1306.09h-86.85v-86.85h86.85v86.85ZM1741.34,1219.02h-86.85v-86.85h86.85v86.85ZM1741.34,1131.94h-86.85v-86.85h86.85v86.85ZM1741.34,1044.87h-86.85v-86.85h86.85v86.85ZM1741.34,957.8h-86.85v-86.85h86.85v86.85ZM1828.41,1741.45h-86.85v-86.85h86.85v86.85ZM1828.41,1654.38h-86.85v-86.85h86.85v86.85ZM1828.41,1567.31h-86.85v-86.85h86.85v86.85ZM1828.41,1480.24h-86.85v-86.85h86.85v86.85ZM1828.41,1393.16h-86.85v-86.85h86.85v86.85ZM1828.41,1306.09h-86.85v-86.85h86.85v86.85ZM1828.41,1219.02h-86.85v-86.85h86.85v86.85ZM1828.41,1131.94h-86.85v-86.85h86.85v86.85ZM1828.41,1044.87h-86.85v-86.85h86.85v86.85ZM1828.41,957.8h-86.85v-86.85h86.85v86.85ZM1915.48,1741.45h-86.85v-86.85h86.85v86.85ZM1915.48,1654.38h-86.85v-86.85h86.85v86.85ZM1915.48,1567.31h-86.85v-86.85h86.85v86.85ZM1915.48,1480.24h-86.85v-86.85h86.85v86.85ZM1915.48,1393.16h-86.85v-86.85h86.85v86.85ZM1915.48,1306.09h-86.85v-86.85h86.85v86.85ZM1915.48,1219.02h-86.85v-86.85h86.85v86.85ZM1915.48,1131.94h-86.85v-86.85h86.85v86.85ZM1915.48,1044.87h-86.85v-86.85h86.85v86.85ZM1915.48,957.8h-86.85v-86.85h86.85v86.85Z"/>
  </g>
</svg>